HIERARCHY
ROOT Elbow
{
	OFFSET	0.00	0.00	0.00
	CHANNELS 6 Xposition Yposition Zposition Zrotation Xrotation Yrotation
	JOINT L_Wrist
	{
		OFFSET	 0.208349	 0.000000	 0.000000
		CHANNELS 3 Zrotation Xrotation Yrotation
		JOINT L_index_Proximal
		{
			OFFSET	 0.093499	 0.010637	-0.002083
			CHANNELS 3 Zrotation Xrotation Yrotation
			JOINT L_index_b
			{
				OFFSET	 0.033152	 0.000000	 0.000000
				CHANNELS 3 Zrotation Xrotation Yrotation
				JOINT L_index_c
				{
					OFFSET	 0.018652	 0.000000	 0.000000
					CHANNELS 3 Zrotation Xrotation Yrotation
					End Site
					{
						OFFSET	 0.018652	 0.000000	 0.000000
					}
				}
			}
		}
		JOINT L_middle_Proximal
		{
			OFFSET	 0.090632	-0.006115	-0.003750
			CHANNELS 3 Zrotation Xrotation Yrotation
			JOINT L_middle_b
			{
				OFFSET	 0.037194	 0.000000	 0.000000
				CHANNELS 3 Zrotation Xrotation Yrotation
				JOINT L_middle_c
				{
					OFFSET	 0.021943	 0.000000	 0.000000
					CHANNELS 3 Zrotation Xrotation Yrotation
					End Site
					{
						OFFSET	 0.021943	 0.000000	 0.000000
					}
				}
			}
		}
		JOINT L_pinky_Proximal
		{
			OFFSET	 0.074015	-0.035449	-0.000417
			CHANNELS 3 Zrotation Xrotation Yrotation
			JOINT L_pinky_b
			{
				OFFSET	 0.027285	 0.000000	 0.000000
				CHANNELS 3 Zrotation Xrotation Yrotation
				JOINT L_pinky_c
				{
					OFFSET	 0.015093	 0.000000	 0.000000
					CHANNELS 3 Zrotation Xrotation Yrotation
					End Site
					{
						OFFSET	 0.015093	 0.000000	 0.000000
					}
				}
			}
		}
		JOINT L_ring_Proximal
		{
			OFFSET	 0.082801	-0.021859	-0.003750
			CHANNELS 3 Zrotation Xrotation Yrotation
			JOINT L_ring_b
			{
				OFFSET	 0.034477	 0.000000	 0.000000
				CHANNELS 3 Zrotation Xrotation Yrotation
				JOINT L_ring_c
				{
					OFFSET	 0.021377	 0.000000	 0.000000
					CHANNELS 3 Zrotation Xrotation Yrotation
					End Site
					{
						OFFSET	 0.021377	 0.000000	 0.000000
					}
				}
			}
		}
		JOINT L_thumb_Proximal
		{
			OFFSET	 0.030306	 0.018528	 0.004584
			CHANNELS 3 Zrotation Xrotation Yrotation
			JOINT L_thumb_a
			{
				OFFSET	 0.038520	 0.000000	 0.000000
				CHANNELS 3 Zrotation Xrotation Yrotation
				JOINT L_thumb_b
				{
					OFFSET	 0.026310	 0.000000	 0.000000
					CHANNELS 3 Zrotation Xrotation Yrotation
					End Site
					{
						OFFSET	 0.026310	 0.000000	 0.000000
					}
				}
			}
		}
	}
}
MOTION
Frames:    21
Frame Time: 0.01666667
 1.996164	-0.582142	 1.301834	-76.139310	 15.815330	-31.303600	 13.738240	-2.563100	-14.706700	 3.673381	-0.727592	-12.076510	-2.107715	 0.258853	-14.001730	-2.371375	 0.154567	-7.457360	-8.640217	-8.751445	-16.817840	 0.049609	-0.006772	-15.513310	-3.295359	 0.176758	-6.139206	-27.770140	-19.303500	-78.325490	 3.747357	-2.746178	-72.461640	 4.629395	-1.377576	-33.127970	-21.881410	-8.616282	-76.927360	 0.278786	-0.247571	-83.209700	 2.372610	-0.526328	-25.012140	 58.704000	 59.487900	-20.832430	-0.315351	 0.012516	-4.430478	 2.395211	-0.334919	-15.936350
 1.996378	-0.582323	 1.301842	-76.215300	 15.734640	-31.311290	 13.792580	-2.549791	-14.628540	 3.566826	-0.716060	-12.276790	-1.895254	 0.243207	-14.623750	-2.399475	 0.162582	-7.750018	-8.858566	-8.703605	-16.861720	 0.239700	-0.034175	-16.225100	-2.822952	 0.166824	-6.764367	-27.572530	-19.479640	-77.021000	 3.939239	-2.854382	-71.844150	 4.913008	-1.456442	-33.010940	-22.094660	-8.433678	-76.694410	-0.271722	 0.241829	-83.365950	 2.099545	-0.461478	-24.790490	 60.319120	 58.998520	-22.258630	-0.240594	 0.022596	-10.124780	 3.087804	-0.638228	-23.382110
 1.996666	-0.582506	 1.301740	-76.230950	 15.739940	-31.341610	 13.854220	-2.517819	-14.440890	 3.568699	-0.726199	-12.495720	-1.727346	 0.231483	-15.264540	-2.412430	 0.172863	-8.196500	-8.974881	-8.679770	-17.004830	 0.443606	-0.066289	-16.999660	-2.452231	 0.165667	-7.727254	-27.630760	-19.437470	-75.896380	 3.891177	-2.798470	-71.436370	 5.283211	-1.565769	-32.993180	-22.386780	-8.172853	-76.608980	-0.797659	 0.714138	-83.670570	 1.829744	-0.398446	-24.567110	 61.549720	 58.671410	-23.023930	-0.407188	 0.052168	-14.750410	 3.755737	-0.985392	-29.399400
 1.997588	-0.583269	 1.301690	-76.146200	 15.952730	-31.440390	 14.145170	-2.423401	-13.888250	 3.691781	-0.738447	-11.793400	-1.565663	 0.225951	-16.439900	-2.496322	 0.176969	-8.108309	-9.004305	-8.690450	-17.808500	 0.833232	-0.141140	-19.199320	-2.226545	 0.170434	-8.740210	-28.474030	-18.799050	-73.354770	 3.386143	-2.428902	-71.316560	 5.138396	-1.502016	-32.576850	-23.110270	-7.554701	-76.227230	-1.845045	 1.677882	-84.513490	 1.339111	-0.285245	-24.036800	 61.676630	 58.646510	-22.962020	-1.863964	 0.376247	-22.688120	 2.849010	-1.042302	-40.457280
 1.997858	-0.583404	 1.301732	-76.117600	 16.031400	-31.428870	 14.285020	-2.419281	-13.863640	 3.758135	-0.749166	-11.833850	-1.699217	 0.246944	-16.537590	-2.548229	 0.180939	-8.121830	-8.954842	-8.701437	-17.831420	 0.730926	-0.121666	-18.901140	-2.160827	 0.163065	-8.630182	-28.955480	-18.427970	-72.935080	 2.883950	-2.088352	-71.856060	 4.445455	-1.277725	-32.067800	-23.023880	-7.621815	-76.411970	-1.779994	 1.632935	-85.056750	 1.241110	-0.268456	-24.403840	 60.519870	 59.018350	-21.983690	-2.483558	 0.543636	-24.548240	 2.627591	-1.002331	-41.936130
 1.997468	-0.583088	 1.302237	-76.182170	 16.006670	-31.422730	 14.328590	-2.522366	-14.467780	 3.859012	-0.719705	-11.413830	-1.795190	 0.252995	-16.039510	-2.481491	 0.169789	-7.827200	-8.322333	-8.800928	-15.985250	 1.282632	-0.193254	-17.143690	-1.755765	 0.119815	-7.831954	-29.688790	-17.814380	-73.170730	 1.959076	-1.431008	-72.260050	 3.980886	-1.165655	-32.620600	-22.021040	-8.411408	-78.196660	-0.571143	 0.540798	-86.445680	 1.660820	-0.357906	-24.408190	 59.258940	 59.232510	-21.910640	-2.236219	 0.513791	-25.876790	 2.598442	-1.010967	-42.495730
 1.997281	-0.582807	 1.302379	-76.356960	 15.843210	-31.389440	 14.224470	-2.588767	-14.857580	 3.982066	-0.732032	-11.048830	-1.580948	 0.216919	-15.625630	-2.411954	 0.150841	-7.159348	-7.711851	-8.922118	-15.232010	 1.529939	-0.222312	-16.526450	-1.874392	 0.125063	-7.639378	-30.089620	-17.459510	-74.027600	 1.838780	-1.359242	-72.945950	 3.679498	-1.083036	-32.799420	-21.791210	-8.597776	-78.773140	-0.215923	 0.203413	-86.666340	 1.832093	-0.406856	-25.035030	 60.433360	 58.785350	-23.252490	-2.306115	 0.547875	-26.712380	 2.215755	-0.912980	-44.821040
 1.997506	-0.582357	 1.302468	-76.292330	 16.373500	-31.437530	 14.862870	-2.703140	-15.530650	 5.194689	-0.911735	-9.940271	-1.793603	 0.232075	-14.736340	-2.241154	 0.144039	-7.357207	-6.640151	-9.131054	-13.674800	 1.214719	-0.172073	-16.127570	-1.749030	 0.117511	-7.688476	-30.612720	-17.103890	-73.332880	 1.247740	-0.919046	-72.745890	 3.748906	-1.095818	-32.574990	-21.315240	-9.110350	-78.125960	-0.002515	 0.002215	-85.610790	 2.532108	-0.567380	-25.247750	 61.497100	 58.085960	-25.578110	-2.645803	 0.632457	-26.888570	 1.260002	-0.538991	-46.293840
 1.997818	-0.582032	 1.302305	-76.342030	 16.457720	-31.513320	 15.100060	-2.677910	-15.382410	 5.306716	-0.923382	-9.964771	-1.896456	 0.245070	-14.725480	-2.005234	 0.134262	-7.659904	-6.378672	-9.167025	-13.541230	 1.090810	-0.157281	-16.410030	-1.652230	 0.115316	-7.984117	-30.831670	-16.988200	-71.792790	 1.389925	-0.999487	-71.442210	 3.410993	-0.979170	-32.021040	-20.836830	-9.581522	-76.929750	 0.468050	-0.424098	-84.374920	 2.423535	-0.513147	-23.906950	 62.723290	 57.440780	-27.468750	-2.994900	 0.737992	-27.675530	 0.511988	-0.229972	-48.432540
 1.998708	-0.581769	 1.301253	-76.114400	 17.163240	-31.799560	 15.413260	-2.539207	-14.566400	 5.260585	-0.924720	-10.059820	-1.999257	 0.257687	-14.687300	-1.456516	 0.108256	-8.500298	-5.757751	-9.322662	-14.482040	 0.570781	-0.092638	-18.447280	-1.559492	 0.123958	-9.091927	-29.047500	-18.421570	-69.618600	 2.905852	-1.914726	-66.755100	 4.555375	-1.281031	-31.401930	-21.609870	-9.079406	-72.149850	-0.321241	 0.262649	-78.719250	 2.513751	-0.504189	-22.657470	 66.818220	 54.880680	-33.919870	-2.926188	 0.713006	-27.398070	 0.870468	-0.419119	-51.405850
 1.999060	-0.582071	 1.301183	-75.978000	 17.463040	-31.880830	 15.448350	-2.495384	-14.309270	 4.803501	-0.896402	-11.016010	-1.365538	 0.190860	-15.919520	-0.694728	 0.060671	-9.998837	-5.256921	-9.366010	-12.924470	 1.152308	-0.211782	-20.838470	-0.268056	 0.025081	-10.683530	-27.796690	-19.354400	-68.964440	 3.879663	-2.434927	-64.213050	 4.659218	-1.229341	-29.547460	-21.765790	-9.262982	-64.724570	-0.444138	 0.335055	-74.073810	 2.640256	-0.495305	-21.250300	 67.444440	 53.981010	-36.309980	-2.329721	 0.547005	-26.430110	 1.596095	-0.740512	-49.766220
 2.000202	-0.582830	 1.301188	-76.677500	 16.573570	-31.865550	 14.915090	-2.583083	-14.824250	 4.503510	-0.778285	-10.509470	-0.502274	 0.067520	-15.317110	 0.659008	-0.060148	-10.435720	-6.147861	-9.177220	-13.612090	 1.427579	-0.316419	-24.968240	-0.256639	 0.029475	-13.030180	-29.233500	-18.320370	-66.573040	 2.803212	-1.549166	-57.830990	 4.524744	-1.018396	-25.353770	-22.706540	-9.145368	-52.090580	 0.945761	-0.486470	-54.412630	 1.526772	-0.260731	-19.258130	 65.880350	 53.599800	-38.917390	-2.071817	 0.479701	-26.070270	 1.360623	-0.614502	-48.631890
 2.000553	-0.582318	 1.301525	-77.168430	 16.033260	-31.741700	 14.698220	-2.663576	-15.298750	 4.710939	-0.805118	-10.402080	-0.217617	 0.027509	-14.313310	 0.980776	-0.086643	-10.096450	-7.526145	-8.935118	-15.114790	 1.140101	-0.255929	-25.295490	 0.343440	-0.039918	-13.510110	-30.606060	-17.543480	-61.970080	 2.581883	-1.311692	-53.873220	 3.566314	-0.736597	-23.473780	-22.694310	-9.446185	-45.360000	 0.434258	-0.171403	-44.502340	 0.147920	-0.012000	-17.661670	 63.896400	 53.933760	-39.527050	-2.283119	 0.518333	-25.597850	 0.623752	-0.277635	-47.890950
 2.001204	-0.581568	 1.301528	-77.580440	 15.832590	-31.727640	 14.764730	-2.760224	-15.869690	 5.338348	-0.862972	-9.956131	-0.340457	 0.041104	-13.155540	 1.190297	-0.098328	-9.483087	-8.394267	-8.740741	-15.195050	 0.679857	-0.146094	-23.756940	 0.588620	-0.068836	-13.097290	-30.291200	-18.017590	-54.080950	 2.288774	-1.011817	-48.285580	 4.049413	-0.792639	-21.825050	-23.441780	-9.480031	-36.834770	-0.396248	 0.139384	-35.203210	 0.685801	-0.123423	-17.633650	 60.611010	 54.735720	-39.803550	-2.658400	 0.583982	-24.948990	-0.421772	 0.169888	-45.801530
 2.002874	-0.579982	 1.299928	-78.152370	 15.898900	-32.223880	 15.186550	-2.741427	-15.757520	 6.627438	-1.086870	-9.424964	-1.015394	 0.084953	-9.470041	 1.099685	-0.078643	-8.237562	-8.488461	-8.751988	-14.789120	 0.936117	-0.165419	-20.113520	 0.785936	-0.066569	-9.818228	-23.597110	-20.919730	-32.465560	 3.335047	-0.992618	-33.968810	 2.387744	-0.349938	-17.153860	-21.942800	-10.463150	-25.853530	 1.473751	-0.295229	-22.769320	 2.785111	-0.328310	-13.434180	 49.612270	 56.822030	-41.886720	-2.789394	 0.580902	-23.560880	-2.984916	 1.013422	-37.880310
 2.003055	-0.579968	 1.299740	-78.175050	 15.930020	-32.298570	 15.253990	-2.713731	-15.593700	 6.754649	-1.127261	-9.516754	-1.248100	 0.100134	-9.175488	 0.962526	-0.066957	-7.956406	-8.020413	-8.864326	-14.957020	 1.045792	-0.181629	-19.698060	 0.615614	-0.051968	-9.639215	-21.512280	-21.333200	-26.920610	 3.120726	-0.799562	-28.639470	 1.798261	-0.227590	-14.300290	-21.403420	-10.677000	-24.430680	 1.913792	-0.368804	-21.812800	 2.598798	-0.283934	-12.453160	 48.305390	 56.968520	-42.625900	-2.625073	 0.544149	-23.419800	-3.537045	 1.176638	-36.777550
 2.003517	-0.580014	 1.299425	-78.239940	 16.007970	-32.422270	 15.429360	-2.669488	-15.332930	 6.957783	-1.172927	-9.656849	-1.503109	 0.116947	-8.895373	 0.814372	-0.054942	-7.721211	-7.223382	-9.030981	-14.881200	 1.232463	-0.205359	-18.942110	 0.551865	-0.045310	-9.408170	-19.298610	-21.516970	-20.636620	 2.516319	-0.477681	-21.782660	 0.641652	-0.052443	-10.522240	-20.734660	-10.903900	-22.884490	 2.123262	-0.379894	-20.302630	 2.502634	-0.244394	-11.176960	 46.151790	 57.373370	-43.136810	-2.764600	 0.576922	-23.573660	-3.728544	 1.187274	-35.334720
 2.003909	-0.579873	 1.299076	-78.146660	 16.304750	-32.591110	 15.746770	-2.576295	-14.784500	 6.968513	-1.194591	-9.858889	-1.577156	 0.115911	-8.405853	 0.630698	-0.041135	-7.468036	-6.611078	-9.162692	-14.869070	 1.397119	-0.221254	-18.001020	 0.602841	-0.047429	-9.001904	-17.816400	-21.585000	-17.290570	 2.678153	-0.421561	-17.895510	-0.271295	 0.019388	-7.874149	-19.306620	-11.315110	-20.939990	 1.917605	-0.303579	-18.004110	 2.722950	-0.226015	-9.504658	 44.269760	 57.362300	-45.845330	-2.637081	 0.535297	-22.940790	-4.216414	 1.204137	-31.871010
 2.003790	-0.579579	 1.298776	-77.926280	 16.599690	-32.725760	 15.923680	-2.539061	-14.565710	 7.102475	-1.186691	-9.326112	-1.534250	 0.100278	-7.477758	 0.548850	-0.034926	-7.286816	-6.395440	-9.209538	-14.718420	 1.499917	-0.223945	-16.983870	 0.698052	-0.052271	-8.563331	-17.054710	-21.655910	-16.289640	 2.926515	-0.425432	-16.542490	-0.493150	 0.030844	-7.126094	-18.669790	-11.486690	-19.684580	 2.103976	-0.306035	-16.554350	 2.186058	-0.157164	-8.238019	 43.102190	 57.480640	-46.874450	-2.667250	 0.522232	-22.155220	-4.219850	 1.135221	-30.105810
 2.003578	-0.578335	 1.298232	-77.661170	 16.988620	-32.948390	 16.254810	-2.430974	-13.932110	 7.130523	-1.128934	-8.475499	-1.436524	 0.090586	-7.216389	 0.383042	-0.024112	-7.206403	-6.177744	-9.225773	-14.007190	 1.618889	-0.221448	-15.577600	 0.458011	-0.031973	-7.989369	-15.763930	-21.755460	-14.890210	 2.630900	-0.334997	-14.513430	-0.505619	 0.029579	-6.686836	-17.254000	-11.795780	-17.210230	 1.895411	-0.233395	-14.046850	 2.333365	-0.137034	-6.722094	 41.893990	 57.262300	-50.340120	-2.634364	 0.482775	-20.766640	-4.565626	 1.086765	-26.766980
 2.003565	-0.577603	 1.297974	-77.479150	 17.294160	-33.057340	 16.489630	-2.354476	-13.484720	 7.072369	-1.116715	-8.341334	-1.383759	 0.087159	-7.207433	 0.301839	-0.018897	-7.161853	-6.093656	-9.243945	-13.890580	 1.688915	-0.226634	-15.284660	 0.507680	-0.034824	-7.848281	-15.261490	-21.788990	-14.297100	 2.508308	-0.313763	-14.257310	-0.664345	 0.039823	-6.862122	-16.817780	-11.889080	-16.655040	 1.795868	-0.211708	-13.444450	 2.334852	-0.129568	-6.351543	 41.557170	 57.067160	-52.158280	-2.790108	 0.497850	-20.229030	-4.929052	 1.128878	-25.783730
